<?xml version="1.0" encoding="UTF-8"?>
<!DOCTYPE svg PUBLIC "-//W3C//DTD SVG 1.1//EN" "http://www.w3.org/Graphics/SVG/1.1/DTD/svg11.dtd">
<!-- Creator: CorelDRAW 2020 (64-Bit) -->
<svg xmlns="http://www.w3.org/2000/svg" xml:space="preserve" width="60.6712mm" height="60.5296mm" version="1.1" style="shape-rendering:geometricPrecision; text-rendering:geometricPrecision; image-rendering:optimizeQuality; fill-rule:evenodd; clip-rule:evenodd"
viewBox="0 0 973.68 971.41"
 xmlns:xlink="http://www.w3.org/1999/xlink"
 xmlns:xodm="http://www.corel.com/coreldraw/odm/2003">
 <defs>
  <style type="text/css">
   <![CDATA[
    .fil5 {fill:#7688A1}
    .fil4 {fill:black}
    .fil1 {fill:url(#id0)}
    .fil0 {fill:url(#id1)}
    .fil2 {fill:url(#id2)}
    .fil3 {fill:url(#id3)}
   ]]>
  </style>
  <linearGradient id="id0" gradientUnits="userSpaceOnUse" x1="410.03" y1="343.69" x2="41.92" y2="595.1">
   <stop offset="0" style="stop-opacity:1; stop-color:#ACB3B3"/>
   <stop offset="0.360784" style="stop-opacity:1; stop-color:#D5D9D9"/>
   <stop offset="1" style="stop-opacity:1; stop-color:white"/>
  </linearGradient>
  <linearGradient id="id1" gradientUnits="userSpaceOnUse" x1="470.31" y1="95.32" x2="105.09" y2="134.81">
   <stop offset="0" style="stop-opacity:1; stop-color:#CDCFCF"/>
   <stop offset="0.34902" style="stop-opacity:1; stop-color:#E6E7E7"/>
   <stop offset="1" style="stop-opacity:1; stop-color:white"/>
  </linearGradient>
  <linearGradient id="id2" gradientUnits="userSpaceOnUse" x1="633.69" y1="597.88" x2="987.41" y2="418.31">
   <stop offset="0" style="stop-opacity:1; stop-color:#D1D1D1"/>
   <stop offset="0.588235" style="stop-opacity:1; stop-color:#E8E8E8"/>
   <stop offset="1" style="stop-opacity:1; stop-color:white"/>
  </linearGradient>
  <radialGradient id="id3" gradientUnits="userSpaceOnUse" gradientTransform="matrix(1.69891 0.709669 -0.709669 1.69891 -89 -692)" cx="557.31" cy="423.55" r="98.72" fx="557.31" fy="423.55">
   <stop offset="0" style="stop-opacity:1; stop-color:#989D9E"/>
   <stop offset="0.560784" style="stop-opacity:1; stop-color:#4C4E4F"/>
   <stop offset="1" style="stop-opacity:1; stop-color:black"/>
  </radialGradient>
 </defs>
 <g id="Layer_x0020_1">
  <metadata id="CorelCorpID_0Corel-Layer"/>
  <path class="fil0" d="M375.27 130.43c65.09,-16.88 138.41,-10.95 138.41,-10.95 -30.01,-17.39 -59.71,-33.83 -88.36,-45.12 -93.61,-36.87 -193.95,-1.85 -193.95,-1.85 -31.03,24.39 -33.23,70.22 12.25,84.33 40.02,12.42 91.25,-15.95 131.66,-26.43z"/>
  <path class="fil1" d="M496.95 371.66c-187.33,-69.22 -293.11,-61.27 -384.44,5.72 -88.83,65.16 -111.24,145.34 -111.24,145.34 4.5,39.44 19.74,62.25 40.65,72.38 28.01,13.57 61.4,5.46 90.07,-8.65 117.97,-58.08 133.38,-157.53 364.96,-214.78z"/>
  <path class="fil2" d="M586.48 590.64c133.12,18.38 210.08,30.03 303.48,0.62 45.54,-14.34 68.97,-44.24 83.42,-70.71 1.07,-44.58 -0.65,-72.11 -5.75,-115.31 -26.51,63.31 -69.16,73.64 -141.4,68.35 -71.31,66.06 -152.11,103.71 -239.74,117.05z"/>
  <circle class="fil3" cx="487.25" cy="487.25" r="159.23"/>
  <path class="fil4" d="M425.32 74.37c28.65,11.29 58.36,27.72 88.36,45.12 55.13,31.95 111.27,67.14 163.74,79.56 25.89,6.12 63.65,8.04 87.91,-2.36 23.34,-10 37.61,-35.13 35.13,-57.43 -2.77,-24.87 -18.39,-39.97 -18.39,-39.97 -81.86,-62.3 -184.02,-99.29 -294.83,-99.29 -93.86,0 -181.52,26.54 -255.88,72.52 0,0 100.34,-35.03 193.95,1.85z"/>
  <path class="fil5" d="M779.16 299.89c-89.17,-5.31 -204.88,-63.69 -252.65,-80.68 -47.77,-16.98 -140.12,-64.75 -301.48,-29.72 -161.35,35.03 -213.57,192.22 -213.57,192.22 -7.51,33.98 -11.46,69.3 -11.46,105.54 0,11.93 0.43,23.76 1.27,35.47 0,0 22.41,-80.18 111.24,-145.34 91.33,-66.99 192.61,-62.34 297.52,-33.69 134.63,36.76 275.22,113.05 408.4,128.17 1.81,0.21 3.59,0.4 5.36,0.57 23.01,-22.44 38.27,-40.24 67.89,-57.63 48.83,-28.66 72.77,-26.44 72.77,-26.44 -15.45,-74.94 -48.11,-143.6 -93.66,-201.65 6.72,40.75 -2.47,118.48 -91.64,113.17z"/>
  <path class="fil5" d="M964.46 388.37c0,0 -23.94,-2.22 -72.77,26.44 -29.63,17.39 -44.88,35.19 -67.89,57.63 95.4,9.53 126.68,-23.15 143.83,-67.19 -0.96,-5.66 -2.02,-11.29 -3.17,-16.88z"/>
  <path class="fil4" d="M973.38 520.55c-42.51,83.72 -164.49,106.3 -324.79,79.76 -22.02,-3.65 -42.75,-6.85 -62.11,-9.67 -71.13,-14.54 -214.1,-36.61 -291.83,-14.6 -48.57,13.75 -103.41,38.64 -131.19,101.76 -58.38,132.69 89.67,236.87 89.67,236.87 34.22,18.78 70.93,33.57 109.52,43.75 0,0 -71.6,-49.07 -62.53,-110.07 2.99,-20.11 10.48,-38.68 22.96,-53.81 27.35,-33.16 67.95,-45.57 109.17,-50.25 58.14,-6.6 128.58,-1.1 177.27,-2.39 115.74,-3.06 240.25,-17.74 314.36,-83.24 11.81,-10.44 22.35,-22.17 31.36,-35.35 9.56,-32.95 15.74,-67.34 18.13,-102.77z"/>
  <path class="fil4" d="M886.74 766.27c-68.96,44.32 -141.5,67.08 -206.92,73.13 -87.96,8.14 -168.3,0.6 -194.71,44.87 -29.71,49.8 31.87,92 61.18,86.68 140.74,-17 263.01,-94.01 340.45,-204.68z"/>
  <path class="fil5" d="M410.03 343.69c134.63,36.76 275.22,113.05 408.4,128.17 1.81,0.21 3.59,0.4 5.36,0.57 23.01,-22.44 38.27,-40.24 67.89,-57.63 48.83,-28.66 72.77,-26.44 72.77,-26.44 -15.45,-74.94 -48.11,-143.6 -93.66,-201.65 6.72,40.75 -2.47,118.48 -91.64,113.17 -89.17,-5.31 -204.88,-63.69 -252.65,-80.68 -47.77,-16.98 -140.12,-64.75 -301.48,-29.72 -161.35,35.03 -213.57,192.22 -213.57,192.22 -7.51,33.98 -11.46,69.3 -11.46,105.54 0,11.93 0.43,23.76 1.27,35.47 0,0 22.41,-80.18 111.24,-145.34 91.33,-66.99 192.61,-62.34 297.52,-33.69z"/>
  <path class="fil5" d="M410.03 343.69c134.63,36.76 275.22,113.05 408.4,128.17 1.81,0.21 3.59,0.4 5.36,0.57 23.01,-22.44 38.27,-40.24 67.89,-57.63 48.83,-28.66 72.77,-26.44 72.77,-26.44 -15.45,-74.94 -48.11,-143.6 -93.66,-201.65 6.72,40.75 -2.47,118.48 -91.64,113.17 -89.17,-5.31 -204.88,-63.69 -252.65,-80.68 -47.77,-16.98 -140.12,-64.75 -301.48,-29.72 -161.35,35.03 -213.57,192.22 -213.57,192.22 -7.51,33.98 -11.46,69.3 -11.46,105.54 0,11.93 0.43,23.76 1.27,35.47 0,0 22.41,-80.18 111.24,-145.34 91.33,-66.99 192.61,-62.34 297.52,-33.69z"/>
  <path class="fil4" d="M410.03 343.69c134.63,36.76 275.22,113.05 408.4,128.17 1.81,0.21 3.59,0.4 5.36,0.57 95.4,9.53 126.68,-23.15 143.83,-67.19 -0.96,-5.66 -2.02,-11.29 -3.17,-16.88 -15.45,-74.94 -48.11,-143.6 -93.66,-201.65 6.72,40.75 -2.47,118.48 -91.64,113.17 -89.17,-5.31 -204.88,-63.69 -252.65,-80.68 -47.77,-16.98 -140.12,-64.75 -301.48,-29.72 -161.35,35.03 -213.57,192.22 -213.57,192.22 -7.51,33.98 -11.46,69.3 -11.46,105.54 0,11.93 0.43,23.76 1.27,35.47 0,0 22.41,-80.18 111.24,-145.34 91.33,-66.99 192.61,-62.34 297.52,-33.69z"/>
 </g>
</svg>
