<?xml version="1.0" encoding="UTF-8"?>
<!DOCTYPE svg PUBLIC "-//W3C//DTD SVG 1.1//EN" "http://www.w3.org/Graphics/SVG/1.1/DTD/svg11.dtd">
<!-- Creator: CorelDRAW 2020 (64-Bit) -->
<svg xmlns="http://www.w3.org/2000/svg" xml:space="preserve" width="10.0234mm" height="10mm" version="1.1" style="shape-rendering:geometricPrecision; text-rendering:geometricPrecision; image-rendering:optimizeQuality; fill-rule:evenodd; clip-rule:evenodd"
viewBox="0 0 302.22 301.52"
 xmlns:xlink="http://www.w3.org/1999/xlink"
 xmlns:xodm="http://www.corel.com/coreldraw/odm/2003">
 <defs>
  <style type="text/css">
   <![CDATA[
    .fil4 {fill:#2B2A29}
    .fil5 {fill:#7688A1}
    .fil1 {fill:url(#id0)}
    .fil2 {fill:url(#id1)}
    .fil0 {fill:url(#id2)}
    .fil3 {fill:url(#id3)}
   ]]>
  </style>
  <linearGradient id="id0" gradientUnits="userSpaceOnUse" x1="127.27" y1="106.68" x2="-5.87" y2="189.81">
   <stop offset="0" style="stop-opacity:1; stop-color:#D8DCDC"/>
   <stop offset="1" style="stop-opacity:1; stop-color:white"/>
  </linearGradient>
  <linearGradient id="id1" gradientUnits="userSpaceOnUse" xlink:href="#id0" x1="196.69" y1="185.58" x2="306.49" y2="129.84">
  </linearGradient>
  <linearGradient id="id2" gradientUnits="userSpaceOnUse" xlink:href="#id0" x1="145.98" y1="29.59" x2="64.84" y2="37.08">
  </linearGradient>
  <radialGradient id="id3" gradientUnits="userSpaceOnUse" gradientTransform="matrix(1.69891 0.709669 -0.709669 1.69891 -28 -215)" cx="172.99" cy="131.47" r="30.64" fx="172.99" fy="131.47">
   <stop offset="0" style="stop-opacity:1; stop-color:#989D9E"/>
   <stop offset="0.560784" style="stop-opacity:1; stop-color:#616363"/>
   <stop offset="1" style="stop-opacity:1; stop-color:#2B2A29"/>
  </radialGradient>
 </defs>
 <g id="Layer_x0020_1">
  <metadata id="CorelCorpID_0Corel-Layer"/>
  <g id="_2489620589600">
   <path class="fil0" d="M116.48 40.48c20.2,-5.24 42.96,-3.4 42.96,-3.4 -9.31,-5.4 -18.53,-10.5 -27.43,-14 -29.06,-11.45 -60.2,-0.57 -60.2,-0.57 -9.63,7.57 -10.31,21.79 3.8,26.18 12.42,3.86 28.32,-4.95 40.86,-8.2z"/>
   <path class="fil1" d="M154.25 115.36c-58.15,-21.49 -90.98,-19.02 -119.33,1.78 -27.57,20.22 -34.53,45.11 -34.53,45.11 1.4,12.24 6.13,19.32 12.62,22.46 8.69,4.21 19.06,1.7 27.96,-2.69 36.62,-18.03 41.4,-48.9 113.28,-66.67z"/>
   <path class="fil2" d="M182.04 183.33c41.32,5.7 65.21,9.32 94.2,0.19 14.14,-4.45 21.41,-13.73 25.89,-21.95 0.33,-13.84 -0.2,-22.38 -1.78,-35.79 -8.23,19.65 -21.47,22.86 -43.89,21.21 -22.13,20.5 -47.21,32.19 -74.41,36.33z"/>
   <circle class="fil3" cx="151.24" cy="151.24" r="49.42"/>
   <path class="fil4" d="M132.02 23.08c8.89,3.5 18.11,8.6 27.43,14 17.11,9.92 34.54,20.84 50.82,24.7 8.03,1.9 19.76,2.5 27.29,-0.73 7.24,-3.1 11.67,-10.9 10.9,-17.83 -0.86,-7.72 -5.71,-12.41 -5.71,-12.41 -25.41,-19.34 -57.12,-30.82 -91.51,-30.82 -29.13,0 -56.34,8.24 -79.42,22.51 0,0 31.15,-10.87 60.2,0.57z"/>
   <path class="fil5" d="M241.85 93.08c-27.68,-1.65 -63.59,-19.77 -78.42,-25.04 -14.83,-5.27 -43.49,-20.1 -93.58,-9.23 -50.08,10.87 -66.29,59.66 -66.29,59.66 -2.33,10.55 -3.56,21.51 -3.56,32.76 0,3.7 0.13,7.37 0.39,11.01 0,0 6.96,-24.89 34.53,-45.11 28.35,-20.79 59.79,-19.35 92.35,-10.46 41.79,11.41 85.43,35.09 126.77,39.78 0.56,0.06 1.12,0.12 1.66,0.18 7.14,-6.97 11.88,-12.49 21.07,-17.89 15.16,-8.9 22.59,-8.21 22.59,-8.21 -4.8,-23.26 -14.93,-44.57 -29.07,-62.59 2.09,12.65 -0.77,36.78 -28.44,35.13z"/>
   <path class="fil5" d="M299.36 120.55c0,0 -7.43,-0.69 -22.59,8.21 -9.2,5.4 -13.93,10.92 -21.07,17.89 29.61,2.96 39.32,-7.19 44.64,-20.85 -0.3,-1.76 -0.63,-3.5 -0.98,-5.24z"/>
   <path class="fil4" d="M302.13 161.57c-13.19,25.98 -51.06,32.99 -100.81,24.76 -6.84,-1.13 -13.27,-2.13 -19.28,-3 -22.08,-4.51 -66.46,-11.36 -90.58,-4.53 -15.08,4.27 -32.1,11.99 -40.72,31.59 -18.12,41.19 27.83,73.52 27.83,73.52 10.62,5.83 22.02,10.42 33.99,13.58 0,0 -22.22,-15.23 -19.41,-34.16 0.93,-6.24 3.25,-12 7.13,-16.7 8.49,-10.29 21.09,-14.14 33.89,-15.6 18.05,-2.05 39.91,-0.34 55.02,-0.74 35.92,-0.95 74.57,-5.5 97.57,-25.84 3.67,-3.24 6.94,-6.88 9.73,-10.97 2.97,-10.23 4.89,-20.9 5.63,-31.9z"/>
   <path class="fil4" d="M275.24 237.85c-21.4,13.76 -43.92,20.82 -64.23,22.7 -27.3,2.53 -52.24,0.19 -60.44,13.93 -9.22,15.46 9.89,28.56 18.99,26.91 43.69,-5.28 81.64,-29.18 105.67,-63.53z"/>
   <path class="fil5" d="M127.27 106.68c41.79,11.41 85.43,35.09 126.77,39.78 0.56,0.06 1.12,0.12 1.66,0.18 7.14,-6.97 11.88,-12.49 21.07,-17.89 15.16,-8.9 22.59,-8.21 22.59,-8.21 -4.8,-23.26 -14.93,-44.57 -29.07,-62.59 2.09,12.65 -0.77,36.78 -28.44,35.13 -27.68,-1.65 -63.59,-19.77 -78.42,-25.04 -14.83,-5.27 -43.49,-20.1 -93.58,-9.23 -50.08,10.87 -66.29,59.66 -66.29,59.66 -2.33,10.55 -3.56,21.51 -3.56,32.76 0,3.7 0.13,7.37 0.39,11.01 0,0 6.96,-24.89 34.53,-45.11 28.35,-20.79 59.79,-19.35 92.35,-10.46z"/>
   <path class="fil5" d="M127.27 106.68c41.79,11.41 85.43,35.09 126.77,39.78 0.56,0.06 1.12,0.12 1.66,0.18 7.14,-6.97 11.88,-12.49 21.07,-17.89 15.16,-8.9 22.59,-8.21 22.59,-8.21 -4.8,-23.26 -14.93,-44.57 -29.07,-62.59 2.09,12.65 -0.77,36.78 -28.44,35.13 -27.68,-1.65 -63.59,-19.77 -78.42,-25.04 -14.83,-5.27 -43.49,-20.1 -93.58,-9.23 -50.08,10.87 -66.29,59.66 -66.29,59.66 -2.33,10.55 -3.56,21.51 -3.56,32.76 0,3.7 0.13,7.37 0.39,11.01 0,0 6.96,-24.89 34.53,-45.11 28.35,-20.79 59.79,-19.35 92.35,-10.46z"/>
   <path class="fil4" d="M127.27 106.68c41.79,11.41 85.43,35.09 126.77,39.78 0.56,0.06 1.12,0.12 1.66,0.18 29.61,2.96 39.32,-7.19 44.64,-20.85 -0.3,-1.76 -0.63,-3.5 -0.98,-5.24 -4.8,-23.26 -14.93,-44.57 -29.07,-62.59 2.09,12.65 -0.77,36.78 -28.44,35.13 -27.68,-1.65 -63.59,-19.77 -78.42,-25.04 -14.83,-5.27 -43.49,-20.1 -93.58,-9.23 -50.08,10.87 -66.29,59.66 -66.29,59.66 -2.33,10.55 -3.56,21.51 -3.56,32.76 0,3.7 0.13,7.37 0.39,11.01 0,0 6.96,-24.89 34.53,-45.11 28.35,-20.79 59.79,-19.35 92.35,-10.46z"/>
  </g>
 </g>
</svg>
