<?xml version="1.0" encoding="UTF-8"?>
<!DOCTYPE svg PUBLIC "-//W3C//DTD SVG 1.1//EN" "http://www.w3.org/Graphics/SVG/1.1/DTD/svg11.dtd">
<!-- Creator: CorelDRAW 2020 (64-Bit) -->
<svg xmlns="http://www.w3.org/2000/svg" xml:space="preserve" width="68.924mm" height="68.924mm" version="1.1" style="shape-rendering:geometricPrecision; text-rendering:geometricPrecision; image-rendering:optimizeQuality; fill-rule:evenodd; clip-rule:evenodd"
viewBox="0 0 2934.51 2934.51"
 xmlns:xlink="http://www.w3.org/1999/xlink"
 xmlns:xodm="http://www.corel.com/coreldraw/odm/2003">
 <defs>
  <style type="text/css">
   <![CDATA[
    .str0 {stroke:#2B2A29;stroke-width:8.52;stroke-miterlimit:22.9256}
    .fil1 {fill:#FEFEFE}
    .fil6 {fill:#7688A1}
    .fil0 {fill:black}
    .fil3 {fill:url(#id0)}
    .fil2 {fill:url(#id1)}
    .fil4 {fill:url(#id2)}
    .fil5 {fill:url(#id3)}
   ]]>
  </style>
  <linearGradient id="id0" gradientUnits="userSpaceOnUse" x1="1262.4" y1="1086.4" x2="285.81" y2="1753.37">
   <stop offset="0" style="stop-opacity:1; stop-color:#ACB3B3"/>
   <stop offset="0.360784" style="stop-opacity:1; stop-color:#D5D9D9"/>
   <stop offset="1" style="stop-opacity:1; stop-color:white"/>
  </linearGradient>
  <linearGradient id="id1" gradientUnits="userSpaceOnUse" x1="1422.31" y1="427.48" x2="453.4" y2="532.26">
   <stop offset="0" style="stop-opacity:1; stop-color:#CDCFCF"/>
   <stop offset="0.34902" style="stop-opacity:1; stop-color:#E6E7E7"/>
   <stop offset="1" style="stop-opacity:1; stop-color:white"/>
  </linearGradient>
  <linearGradient id="id2" gradientUnits="userSpaceOnUse" x1="1855.75" y1="1760.75" x2="2794.17" y2="1284.36">
   <stop offset="0" style="stop-opacity:1; stop-color:#D1D1D1"/>
   <stop offset="0.588235" style="stop-opacity:1; stop-color:#E8E8E8"/>
   <stop offset="1" style="stop-opacity:1; stop-color:white"/>
  </linearGradient>
  <radialGradient id="id3" gradientUnits="userSpaceOnUse" gradientTransform="matrix(1.69891 0.709669 -0.709669 1.69891 -234 -2081)" cx="1653.12" cy="1298.28" r="261.91" fx="1653.12" fy="1298.28">
   <stop offset="0" style="stop-opacity:1; stop-color:#989D9E"/>
   <stop offset="0.560784" style="stop-opacity:1; stop-color:#4C4E4F"/>
   <stop offset="1" style="stop-opacity:1; stop-color:black"/>
  </radialGradient>
 </defs>
 <g id="Layer_x0020_1">
  <metadata id="CorelCorpID_0Corel-Layer"/>
  <path class="fil0" d="M1467.25 0c-810.34,0 -1467.25,656.91 -1467.25,1467.25 0,810.34 656.91,1467.25 1467.25,1467.25 810.34,0 1467.25,-656.91 1467.25,-1467.25 0,-810.34 -656.91,-1467.25 -1467.25,-1467.25zm0 90.12c760.57,0 1377.14,616.56 1377.14,1377.14 0,760.57 -616.56,1377.14 -1377.14,1377.14 -760.57,0 -1377.14,-616.56 -1377.14,-1377.14 0,-760.57 616.56,-1377.14 1377.14,-1377.14z"/>
  <path class="fil1 str0" d="M1467.25 90.12c-760.57,0 -1377.14,616.56 -1377.14,1377.14 0,760.57 616.56,1377.14 1377.14,1377.14 760.57,0 1377.14,-616.56 1377.14,-1377.14 0,-760.57 -616.56,-1377.14 -1377.14,-1377.14z"/>
  <g id="_2193162634096">
   <path class="fil2" d="M1170.18 520.62c172.69,-44.79 367.2,-29.04 367.2,-29.04 -79.6,-46.14 -158.42,-89.75 -234.43,-119.69 -248.34,-97.83 -514.55,-4.9 -514.55,-4.9 -82.31,64.72 -88.16,186.28 32.5,223.73 106.16,32.96 242.09,-42.31 349.28,-70.11z"/>
   <path class="fil3" d="M1492.98 1160.6c-496.97,-183.63 -777.61,-162.54 -1019.89,15.18 -235.65,172.86 -295.11,385.58 -295.11,385.58 11.94,104.63 52.38,165.15 107.84,192.01 74.31,35.99 162.88,14.49 238.95,-22.96 312.97,-154.09 353.85,-417.93 968.22,-569.8z"/>
   <path class="fil4" d="M1730.51 1741.55c353.17,48.76 557.34,79.66 805.12,1.64 120.81,-38.04 182.98,-117.36 221.3,-187.59 2.84,-118.26 -1.73,-191.31 -15.25,-305.9 -70.33,167.97 -183.49,195.36 -375.14,181.32 -189.19,175.25 -403.53,275.13 -636.03,310.53z"/>
   <circle class="fil5" cx="1467.25" cy="1467.25" r="422.43"/>
   <path class="fil0" d="M1302.96 371.89c76.01,29.94 154.82,73.55 234.43,119.69 146.25,84.77 295.19,178.13 434.39,211.07 68.68,16.25 168.87,21.33 233.23,-6.25 61.92,-26.54 99.79,-93.2 93.2,-152.36 -7.34,-65.98 -48.79,-106.03 -48.79,-106.03 -217.16,-165.28 -488.2,-263.41 -782.16,-263.41 -249,0 -481.56,70.4 -678.85,192.39 0,0 266.21,-92.93 514.55,4.9z"/>
   <path class="fil6" d="M2241.68 970.2c-236.56,-14.08 -543.53,-168.98 -670.26,-214.03 -126.73,-45.06 -371.74,-171.79 -799.81,-78.85 -428.06,92.93 -566.6,509.95 -566.6,509.95 -19.91,90.16 -30.41,183.85 -30.41,280 0,31.65 1.14,63.03 3.37,94.11 0,0 59.46,-212.72 295.11,-385.58 242.29,-177.72 510.99,-165.39 789.32,-89.38 357.17,97.53 730.16,299.91 1083.47,340.03 4.8,0.54 9.54,1.05 14.22,1.52 61.04,-59.53 101.52,-106.75 180.11,-152.88 129.55,-76.04 193.06,-70.14 193.06,-70.14 -40.98,-198.82 -127.62,-380.95 -248.47,-534.97 17.82,108.11 -6.56,314.33 -243.12,300.25z"/>
   <path class="fil6" d="M2733.27 1204.92c0,0 -63.51,-5.89 -193.06,70.14 -78.6,46.13 -119.07,93.35 -180.11,152.88 253.11,25.29 336.08,-61.43 381.58,-178.25 -2.54,-15.02 -5.35,-29.94 -8.4,-44.78z"/>
   <path class="fil0" d="M2756.93 1555.6c-112.77,222.09 -436.4,282.01 -861.64,211.6 -58.43,-9.67 -113.41,-18.18 -164.78,-25.65 -188.71,-38.56 -568,-97.12 -774.21,-38.74 -128.86,36.49 -274.34,102.5 -348.03,269.97 -154.89,352.03 237.9,628.4 237.9,628.4 90.77,49.83 188.18,89.07 290.55,116.07 0,0 -189.94,-130.19 -165.89,-292 7.93,-53.35 27.79,-102.6 60.9,-142.74 72.55,-87.97 180.26,-120.89 289.62,-133.31 154.24,-17.52 341.12,-2.93 470.3,-6.34 307.05,-8.11 637.37,-47.05 833.98,-220.83 31.33,-27.7 59.28,-58.82 83.19,-93.79 25.37,-87.42 41.76,-178.65 48.11,-272.64z"/>
   <path class="fil0" d="M2527.1 2207.5c-182.94,117.59 -375.39,177.95 -548.95,194.01 -233.36,21.6 -446.49,1.58 -516.56,119.03 -78.82,132.12 84.56,244.08 162.31,229.96 373.39,-45.1 697.74,-249.4 903.2,-543.01z"/>
   <path class="fil6" d="M1262.4 1086.4c357.17,97.53 730.16,299.91 1083.47,340.03 4.8,0.54 9.54,1.05 14.22,1.52 61.04,-59.53 101.52,-106.75 180.11,-152.88 129.55,-76.04 193.06,-70.14 193.06,-70.14 -40.98,-198.82 -127.62,-380.95 -248.47,-534.97 17.82,108.11 -6.56,314.33 -243.12,300.25 -236.56,-14.08 -543.53,-168.98 -670.26,-214.03 -126.73,-45.06 -371.74,-171.79 -799.81,-78.85 -428.06,92.93 -566.6,509.95 -566.6,509.95 -19.91,90.16 -30.41,183.85 -30.41,280 0,31.65 1.14,63.03 3.37,94.11 0,0 59.46,-212.72 295.11,-385.58 242.29,-177.72 510.99,-165.39 789.32,-89.38z"/>
   <path class="fil6" d="M1262.4 1086.4c357.17,97.53 730.16,299.91 1083.47,340.03 4.8,0.54 9.54,1.05 14.22,1.52 61.04,-59.53 101.52,-106.75 180.11,-152.88 129.55,-76.04 193.06,-70.14 193.06,-70.14 -40.98,-198.82 -127.62,-380.95 -248.47,-534.97 17.82,108.11 -6.56,314.33 -243.12,300.25 -236.56,-14.08 -543.53,-168.98 -670.26,-214.03 -126.73,-45.06 -371.74,-171.79 -799.81,-78.85 -428.06,92.93 -566.6,509.95 -566.6,509.95 -19.91,90.16 -30.41,183.85 -30.41,280 0,31.65 1.14,63.03 3.37,94.11 0,0 59.46,-212.72 295.11,-385.58 242.29,-177.72 510.99,-165.39 789.32,-89.38z"/>
   <path class="fil0" d="M1262.4 1086.4c357.17,97.53 730.16,299.91 1083.47,340.03 4.8,0.54 9.54,1.05 14.22,1.52 253.11,25.29 336.08,-61.43 381.58,-178.25 -2.54,-15.02 -5.35,-29.94 -8.4,-44.78 -40.98,-198.82 -127.62,-380.95 -248.47,-534.97 17.82,108.11 -6.56,314.33 -243.12,300.25 -236.56,-14.08 -543.53,-168.98 -670.26,-214.03 -126.73,-45.06 -371.74,-171.79 -799.81,-78.85 -428.06,92.93 -566.6,509.95 -566.6,509.95 -19.91,90.16 -30.41,183.85 -30.41,280 0,31.65 1.14,63.03 3.37,94.11 0,0 59.46,-212.72 295.11,-385.58 242.29,-177.72 510.99,-165.39 789.32,-89.38z"/>
  </g>
 </g>
</svg>
